<svg width="220" height="40" viewBox="0 0 220 40" fill="none" xmlns="http://www.w3.org/2000/svg">
<g id="button">
<rect id="&#208;&#159;&#208;&#190;&#208;&#180;&#208;&#187;&#208;&#190;&#208;&#182;&#208;&#186;&#208;&#176;" y="16" width="220" height="8" fill="#FFE17F"/>
<path id="&#208;&#162;&#208;&#181;&#208;&#186;&#209;&#129;&#209;&#130;" d="M40.1798 27V14.22H50.8178V27H47.8658V16.812H43.1318V27H40.1798ZM62.5249 27.108C61.5769 27.108 60.7129 26.928 59.9329 26.568C59.1649 26.196 58.4989 25.704 57.9349 25.092C57.3709 24.468 56.9389 23.772 56.6389 23.004C56.3389 22.224 56.1889 21.42 56.1889 20.592C56.1889 19.752 56.3449 18.948 56.6569 18.18C56.9809 17.4 57.4249 16.71 57.9889 16.11C58.5649 15.498 59.2429 15.018 60.0229 14.67C60.8029 14.322 61.6549 14.148 62.5789 14.148C63.5269 14.148 64.3849 14.334 65.1529 14.706C65.9329 15.066 66.5989 15.558 67.1509 16.182C67.7149 16.806 68.1469 17.508 68.4469 18.288C68.7469 19.056 68.8969 19.842 68.8969 20.646C68.8969 21.486 68.7349 22.296 68.4109 23.076C68.0989 23.844 67.6549 24.534 67.0789 25.146C66.5149 25.746 65.8429 26.226 65.0629 26.586C64.2949 26.934 63.4489 27.108 62.5249 27.108ZM59.1949 20.628C59.1949 21.288 59.3209 21.912 59.5729 22.5C59.8249 23.076 60.2029 23.55 60.7069 23.922C61.2109 24.294 61.8229 24.48 62.5429 24.48C63.2869 24.48 63.9049 24.288 64.3969 23.904C64.9009 23.52 65.2729 23.034 65.5129 22.446C65.7649 21.846 65.8909 21.228 65.8909 20.592C65.8909 19.932 65.7589 19.314 65.4949 18.738C65.2429 18.15 64.8649 17.676 64.3609 17.316C63.8689 16.956 63.2629 16.776 62.5429 16.776C61.7989 16.776 61.1749 16.968 60.6709 17.352C60.1789 17.724 59.8069 18.204 59.5549 18.792C59.3149 19.38 59.1949 19.992 59.1949 20.628ZM73.4827 29.448V24.408H74.2027C74.8267 24.408 75.3007 23.904 75.6247 22.896C75.9487 21.876 76.1467 20.214 76.2187 17.91L76.3267 14.22H85.1827V24.408H86.9287V29.448H84.3367V27H76.0567V29.448H73.4827ZM77.6587 24.408H82.2307V16.812H79.0267L78.9727 18.324C78.9247 19.968 78.8107 21.282 78.6307 22.266C78.4507 23.25 78.1267 23.964 77.6587 24.408ZM92.3047 27V14.22H97.7587C98.3707 14.22 98.9287 14.346 99.4327 14.598C99.9487 14.838 100.393 15.168 100.765 15.588C101.137 15.996 101.425 16.458 101.629 16.974C101.833 17.49 101.935 18.012 101.935 18.54C101.935 19.284 101.761 19.986 101.413 20.646C101.077 21.306 100.603 21.846 99.9907 22.266C99.3787 22.674 98.6647 22.878 97.8487 22.878H95.2567V27H92.3047ZM95.2567 20.304H97.6687C98.0167 20.304 98.3167 20.154 98.5687 19.854C98.8207 19.554 98.9467 19.116 98.9467 18.54C98.9467 17.952 98.7967 17.52 98.4967 17.244C98.2087 16.956 97.8967 16.812 97.5607 16.812H95.2567V20.304ZM112.718 27.108C111.77 27.108 110.906 26.928 110.126 26.568C109.358 26.196 108.692 25.704 108.128 25.092C107.564 24.468 107.132 23.772 106.832 23.004C106.532 22.224 106.382 21.42 106.382 20.592C106.382 19.752 106.538 18.948 106.85 18.18C107.174 17.4 107.618 16.71 108.182 16.11C108.758 15.498 109.436 15.018 110.216 14.67C110.996 14.322 111.848 14.148 112.772 14.148C113.72 14.148 114.578 14.334 115.346 14.706C116.126 15.066 116.792 15.558 117.344 16.182C117.908 16.806 118.34 17.508 118.64 18.288C118.94 19.056 119.09 19.842 119.09 20.646C119.09 21.486 118.928 22.296 118.604 23.076C118.292 23.844 117.848 24.534 117.272 25.146C116.708 25.746 116.036 26.226 115.256 26.586C114.488 26.934 113.642 27.108 112.718 27.108ZM109.388 20.628C109.388 21.288 109.514 21.912 109.766 22.5C110.018 23.076 110.396 23.55 110.9 23.922C111.404 24.294 112.016 24.48 112.736 24.48C113.48 24.48 114.098 24.288 114.59 23.904C115.094 23.52 115.466 23.034 115.706 22.446C115.958 21.846 116.084 21.228 116.084 20.592C116.084 19.932 115.952 19.314 115.688 18.738C115.436 18.15 115.058 17.676 114.554 17.316C114.062 16.956 113.456 16.776 112.736 16.776C111.992 16.776 111.368 16.968 110.864 17.352C110.372 17.724 110 18.204 109.748 18.792C109.508 19.38 109.388 19.992 109.388 20.628ZM124.449 27V14.22H133.917V16.758H127.401V19.314H130.551C132.003 19.314 133.095 19.656 133.827 20.34C134.571 21.012 134.943 21.924 134.943 23.076C134.943 24.264 134.589 25.218 133.881 25.938C133.173 26.646 132.117 27 130.713 27H124.449ZM127.401 24.462H130.299C130.875 24.462 131.283 24.312 131.523 24.012C131.775 23.7 131.901 23.358 131.901 22.986C131.901 22.626 131.787 22.308 131.559 22.032C131.343 21.744 130.911 21.6 130.263 21.6H127.401V24.462ZM151.122 14.22V27H148.17V21.762H143.076V27H140.124V14.22H143.076V19.17H148.17V14.22H151.122ZM166.153 24.408V27H157.171V14.22H165.991V16.812H160.123V19.296H165.163V21.69H160.123V24.408H166.153ZM180.529 24.408V27H171.547V14.22H180.367V16.812H174.499V19.296H179.539V21.69H174.499V24.408H180.529Z" fill="black"/>
</g>
</svg>
